<svg width="21" height="29" viewBox="0 0 21 29" fill="none" xmlns="http://www.w3.org/2000/svg">
<path d="M7.44 0.119998V11.6C7.44 12.0267 7.53333 12.3333 7.72 12.52C7.93333 12.7067 8.38667 12.8 9.08 12.8H12.04V16.6H6.96C5.44 16.6 4.21333 16.44 3.28 16.12C2.37333 15.8 1.69333 15.24 1.24 14.44C0.813333 13.6133 0.533334 12.7333 0.4 11.8C0.293333 10.8667 0.24 9.61333 0.24 8.04C0.24 6.44 0.293333 5.22667 0.4 4.4C0.533334 3.57333 0.813333 2.8 1.24 2.08C1.69333 1.36 2.37333 0.853332 3.28 0.559999C4.21333 0.266665 5.44 0.119998 6.96 0.119998H7.44ZM13.64 12.8H14.12C15.2667 12.8 16.1467 12.8267 16.76 12.88C17.4 12.9067 18.0133 13.0267 18.6 13.24C19.1867 13.4267 19.5867 13.6533 19.8 13.92C20.04 14.1867 20.2533 14.6533 20.44 15.32C20.6533 15.96 20.7733 16.6533 20.8 17.4C20.8267 18.1467 20.84 19.2133 20.84 20.6C20.84 21.9867 20.8267 23.0933 20.8 23.92C20.7733 24.72 20.6533 25.4933 20.44 26.24C20.2533 26.96 20.04 27.4667 19.8 27.76C19.5867 28.0533 19.1867 28.32 18.6 28.56C18.0133 28.7733 17.4 28.9067 16.76 28.96C16.1467 28.9867 15.2667 29 14.12 29H13.64V12.8ZM0.8 20.08H5.84C6.21333 20.08 6.44 20.1333 6.52 20.24C6.6 20.3467 6.64 20.5733 6.64 20.92V24.04C6.64 24.4667 6.69333 24.7733 6.8 24.96C6.93333 25.12 7.24 25.2 7.72 25.2H12.04V29H6.16C4.21333 29 2.73333 28.6667 1.72 28C0.733333 27.3333 0.24 26.1733 0.24 24.52V20.92C0.24 20.36 0.426667 20.08 0.8 20.08ZM9.04 0.079998H14.12C16.0667 0.079998 17.5333 0.413332 18.52 1.08C19.5333 1.74667 20.04 2.90667 20.04 4.56V8.16C20.04 8.72 19.8533 9 19.48 9H14.44C14.0667 9 13.84 8.94667 13.76 8.84C13.68 8.73333 13.64 8.50667 13.64 8.16V5.04C13.64 4.61333 13.5733 4.32 13.44 4.16C13.3333 3.97333 13.04 3.88 12.56 3.88H9.04V0.079998Z" fill="white"/>
</svg>
