<svg width="59" height="57" viewBox="0 0 59 57" fill="none" xmlns="http://www.w3.org/2000/svg">
<g clip-path="url(#clip0_87_101)">
<path d="M3.95255 48.3929V57.9357C3.95255 58.5162 4.33071 59 4.80584 59H10.7207C11.1862 59 11.574 58.5283 11.574 57.9357V41.1481L7.27847 46.5061C6.36699 47.6309 5.2034 48.284 3.95255 48.3929Z" fill="#3D87E1"/>
<path d="M14.5218 41.027V57.9355C14.5218 58.5161 14.9 58.9999 15.3751 58.9999H21.29C21.7554 58.9999 22.1433 58.5282 22.1433 57.9355V47.9815C20.7955 47.9452 19.5349 47.28 18.5847 46.0947L14.5218 41.027Z" fill="#3D87E1"/>
<path d="M25.091 46.9293V57.9356C25.091 58.5162 25.4692 59 25.9443 59H31.8592C32.3247 59 32.7125 58.5283 32.7125 57.9356V37.6284L25.9347 46.0827C25.6728 46.4093 25.3916 46.6874 25.091 46.9293Z" fill="#3D87E1"/>
<path d="M42.7097 25.1465L35.6603 33.9394V57.9355C35.6603 58.5161 36.0385 58.9999 36.5136 58.9999H42.4285C42.8939 58.9999 43.2818 58.5282 43.2818 57.9355V25.8117C43.0879 25.6061 42.9424 25.4247 42.8358 25.3037L42.7097 25.1465Z" fill="#3D87E1"/>
<path d="M47.5483 9.56846C47.2671 9.19352 46.8405 9 46.2974 9C46.249 9 46.1908 9 46.1423 9C43.3885 9.15723 40.6443 9.32656 37.8905 9.48379C37.5221 9.50798 37.0178 9.53217 36.6203 10.0281C36.4942 10.1853 36.3973 10.3667 36.3197 10.5844C35.9124 11.6851 36.4845 12.3986 36.756 12.7373L37.4445 13.6081C37.9196 14.2129 38.4044 14.8176 38.8893 15.4103L22.25 36.1771L14.7739 26.852C14.3279 26.2956 13.7267 25.9811 13.0867 25.9811C12.4467 25.9811 11.8553 26.2956 11.4092 26.852L1.45084 39.2612C0.519968 40.4223 0.519968 42.2971 1.45084 43.4582L1.89688 44.0145C2.34292 44.5709 2.94411 44.8853 3.58408 44.8853C4.22406 44.8853 4.81555 44.5709 5.26159 44.0145L13.0867 34.254L20.5628 43.5791C21.0088 44.1355 21.61 44.4499 22.25 44.4499C22.8899 44.4499 23.4814 44.1355 23.9372 43.5791L42.7097 20.1635L44.8333 22.8002C45.0854 23.1147 45.4344 23.5501 45.9678 23.5501C46.1908 23.5501 46.4138 23.4775 46.6465 23.3203C46.8017 23.2114 46.9374 23.0905 47.0538 22.9453C47.4707 22.4253 47.5483 21.76 47.5677 21.24C47.6453 19.0145 47.7325 16.7891 47.8198 14.5515L47.9459 11.2013C47.9749 10.4998 47.8489 9.95549 47.5483 9.56846Z" fill="#3D87E1"/>
</g>
<defs>
<clipPath id="clip0_87_101">
<rect width="57.5806" height="57" fill="white" transform="translate(0.752686)"/>
</clipPath>
</defs>
</svg>
