<svg width="50" height="50" viewBox="0 0 50 50" fill="none" xmlns="http://www.w3.org/2000/svg">
<g clip-path="url(#clip0_87_135)">
<path d="M26.82 27.62L35.82 22.73C36.0983 22.5565 36.3396 22.3298 36.5301 22.0628C36.7205 21.7958 36.8564 21.4938 36.9298 21.1742C37.0032 20.8545 37.0127 20.5235 36.9578 20.2002C36.903 19.8769 36.7847 19.5675 36.61 19.29C36.2594 18.7283 35.7003 18.3286 35.0554 18.1786C34.4105 18.0287 33.7324 18.1406 33.17 18.49L24.17 23.38C23.8908 23.5527 23.6486 23.7788 23.4572 24.0455C23.2657 24.3121 23.1289 24.6139 23.0546 24.9336C22.9802 25.2533 22.9698 25.5846 23.0239 25.9083C23.0781 26.2321 23.1957 26.5419 23.37 26.82C23.5427 27.1005 23.7693 27.344 24.0367 27.5363C24.3041 27.7286 24.6071 27.8659 24.928 27.9403C25.2488 28.0148 25.5813 28.0248 25.9061 27.9698C26.2308 27.9148 26.5415 27.7959 26.82 27.62Z" fill="#3D87E1"/>
<path d="M25 0C20.0555 0 15.222 1.46622 11.1108 4.21326C6.99953 6.96029 3.79521 10.8648 1.90302 15.4329C0.0108321 20.0011 -0.484251 25.0277 0.480379 29.8773C1.44501 34.7268 3.82603 39.1814 7.32234 42.6777C10.8187 46.174 15.2732 48.555 20.1228 49.5196C24.9723 50.4843 29.9989 49.9892 34.5671 48.097C39.1353 46.2048 43.0397 43.0005 45.7868 38.8893C48.5338 34.778 50 29.9445 50 25C50 18.3696 47.3661 12.0107 42.6777 7.32233C37.9893 2.63392 31.6304 0 25 0ZM25 45C21.0444 45 17.1776 43.827 13.8886 41.6294C10.5996 39.4318 8.03617 36.3082 6.52242 32.6537C5.00867 28.9991 4.6126 24.9778 5.38431 21.0982C6.15601 17.2186 8.06083 13.6549 10.8579 10.8579C13.6549 8.06081 17.2186 6.156 21.0982 5.38429C24.9778 4.61259 28.9992 5.00866 32.6537 6.52241C36.3082 8.03616 39.4318 10.5996 41.6294 13.8886C43.827 17.1776 45 21.0444 45 25C45 30.3043 42.8929 35.3914 39.1421 39.1421C35.3914 42.8929 30.3043 45 25 45Z" fill="#38D8E0"/>
<path d="M16.82 13.6999C16.3276 13.2798 15.6915 13.0669 15.0454 13.1062C14.3994 13.1454 13.7937 13.4337 13.3559 13.9104C12.918 14.3871 12.6821 15.0151 12.6978 15.6622C12.7135 16.3092 12.9796 16.925 13.44 17.3799L23.81 27.3799C24.049 27.6161 24.3331 27.8016 24.6454 27.9255C24.9577 28.0493 25.2918 28.109 25.6277 28.1008C25.9636 28.0927 26.2943 28.0169 26.6003 27.8781C26.9062 27.7392 27.181 27.5401 27.4083 27.2927C27.6356 27.0452 27.8106 26.7545 27.923 26.4379C28.0354 26.1213 28.0829 25.7853 28.0625 25.4499C28.0421 25.1146 27.9543 24.7868 27.8044 24.4861C27.6545 24.1854 27.4455 23.918 27.19 23.6999L16.82 13.6999Z" fill="#38D8E0"/>
</g>
<defs>
<clipPath id="clip0_87_135">
<rect width="50" height="50" fill="white"/>
</clipPath>
</defs>
</svg>
