<svg width="71" height="53" viewBox="0 0 71 53" fill="none" xmlns="http://www.w3.org/2000/svg">
<path d="M53.2081 28.375C52.5661 28.8573 52.178 29.496 52.1151 30.1743C52.0521 30.8526 52.3184 31.5251 52.8652 32.0689C53.004 32.2113 53.1829 32.3293 53.3894 32.4146C53.5958 32.4999 53.8248 32.5503 54.0602 32.5624C54.2956 32.5745 54.5317 32.5479 54.7519 32.4846C54.972 32.4212 55.1709 32.3226 55.3345 32.1957C55.9488 31.7398 56.334 31.1399 56.4254 30.4969C56.5167 29.8539 56.3085 29.207 55.8359 28.6651C55.7211 28.4897 55.5509 28.3377 55.3398 28.2224C55.1287 28.1071 54.8832 28.0319 54.6244 28.0033C54.3657 27.9747 54.1015 27.9936 53.8547 28.0584C53.6079 28.1232 53.386 28.2318 53.2081 28.375Z" fill="#3D87E1"/>
<path d="M37.2507 20.8726C36.6199 21.362 36.2516 22.0072 36.2158 22.6858C36.1799 23.3645 36.4791 24.0293 37.0564 24.5543C37.1918 24.6884 37.3648 24.7988 37.5633 24.8778C37.7619 24.9568 37.9812 25.0024 38.2059 25.0114C38.4305 25.0205 38.6551 24.9928 38.8639 24.9302C39.0727 24.8677 39.2607 24.7718 39.4146 24.6494C40.0458 24.184 40.4398 23.5688 40.5287 22.9099C40.6175 22.2509 40.3956 21.5895 39.9013 21.0396C39.1272 20.2874 38.1718 20.2228 37.2507 20.8726Z" fill="#3D87E1"/>
<path d="M65.613 10.0541H5.38848C4.48286 10.0548 3.61458 10.3236 2.97408 10.8015C2.33357 11.2794 1.97312 11.9274 1.97179 12.6035V20.2495C1.97031 20.6036 2.08908 20.9522 2.31701 21.2628C2.54494 21.5733 2.8746 21.8357 3.27519 22.0253C4.30126 22.4938 5.14854 23.1515 5.73549 23.9352C6.32244 24.7189 6.62931 25.6022 6.62655 26.5C6.62915 27.398 6.32223 28.2814 5.73531 29.0652C5.14839 29.8491 4.30119 30.507 3.27519 30.9758C2.87452 31.1652 2.54478 31.4273 2.31682 31.7377C2.08886 32.0481 1.97014 32.3966 1.97179 32.7506V40.3966C1.97312 41.0726 2.33356 41.7207 2.97407 42.1986C3.61458 42.6765 4.48286 42.9453 5.38848 42.946H65.613C66.5185 42.9452 67.3866 42.6764 68.0268 42.1985C68.6671 41.7205 69.0272 41.0725 69.0282 40.3966V12.6035C69.0272 11.9276 68.6671 11.2796 68.0268 10.8016C67.3866 10.3237 66.5185 10.0548 65.613 10.0541ZM23.6287 38.0368C23.6292 38.1437 23.6013 38.2497 23.5468 38.3486C23.4923 38.4475 23.4122 38.5373 23.3111 38.6131C23.21 38.6888 23.0898 38.7489 22.9575 38.7899C22.8252 38.8309 22.6834 38.852 22.5401 38.852C22.3969 38.852 22.255 38.8309 22.1227 38.7899C21.9904 38.7489 21.8703 38.6888 21.7692 38.6131C21.668 38.5373 21.5879 38.4475 21.5334 38.3486C21.4789 38.2497 21.4511 38.1437 21.4515 38.0368V36.2989C21.4511 36.192 21.4789 36.086 21.5334 35.9872C21.5879 35.8883 21.668 35.7984 21.7692 35.7227C21.8703 35.6469 21.9904 35.5868 22.1227 35.5458C22.255 35.5048 22.3969 35.4837 22.5401 35.4837C22.6834 35.4837 22.8252 35.5048 22.9575 35.5458C23.0898 35.5868 23.21 35.6469 23.3111 35.7227C23.4122 35.7984 23.4923 35.8883 23.5468 35.9872C23.6013 36.086 23.6292 36.192 23.6287 36.2989V38.0368ZM23.6287 31.0062C23.6292 31.1131 23.6013 31.2191 23.5468 31.3179C23.4923 31.4168 23.4122 31.5067 23.3111 31.5825C23.21 31.6582 23.0898 31.7183 22.9575 31.7593C22.8252 31.8003 22.6834 31.8214 22.5401 31.8214C22.3969 31.8214 22.255 31.8003 22.1227 31.7593C21.9904 31.7183 21.8703 31.6582 21.7692 31.5825C21.668 31.5067 21.5879 31.4168 21.5334 31.3179C21.4789 31.2191 21.4511 31.1131 21.4515 31.0062V29.2694C21.4511 29.1625 21.4789 29.0565 21.5334 28.9576C21.5879 28.8587 21.668 28.7688 21.7692 28.6931C21.8703 28.6174 21.9904 28.5573 22.1227 28.5163C22.255 28.4753 22.3969 28.4542 22.5401 28.4542C22.6834 28.4542 22.8252 28.4753 22.9575 28.5163C23.0898 28.5573 23.21 28.6174 23.3111 28.6931C23.4122 28.7688 23.4923 28.8587 23.5468 28.9576C23.6013 29.0565 23.6292 29.1625 23.6287 29.2694V31.0062ZM23.6287 23.9766C23.6278 24.1917 23.5127 24.3977 23.3086 24.5496C23.1046 24.7014 22.8282 24.7866 22.5401 24.7866C22.252 24.7866 21.9757 24.7014 21.7716 24.5496C21.5676 24.3977 21.4525 24.1917 21.4515 23.9766V22.2398C21.4525 22.0248 21.5676 21.8188 21.7716 21.6669C21.9757 21.5151 22.252 21.4298 22.5401 21.4298C22.8282 21.4298 23.1046 21.5151 23.3086 21.6669C23.5127 21.8188 23.6278 22.0248 23.6287 22.2398V23.9766ZM23.6287 16.946C23.6292 17.053 23.6013 17.1589 23.5468 17.2578C23.4923 17.3567 23.4122 17.4466 23.3111 17.5223C23.21 17.598 23.0898 17.6581 22.9575 17.6991C22.8252 17.7401 22.6834 17.7612 22.5401 17.7612C22.3969 17.7612 22.255 17.7401 22.1227 17.6991C21.9904 17.6581 21.8703 17.598 21.7692 17.5223C21.668 17.4466 21.5879 17.3567 21.5334 17.2578C21.4789 17.1589 21.4511 17.053 21.4515 16.946V15.2092C21.4525 14.9942 21.5676 14.7881 21.7716 14.6363C21.9757 14.4845 22.252 14.3992 22.5401 14.3992C22.8282 14.3992 23.1046 14.4845 23.3086 14.6363C23.5127 14.7881 23.6278 14.9942 23.6287 15.2092V16.946ZM34.6524 25.4809C33.8787 24.5988 33.509 23.5532 33.5988 22.501C33.6886 21.4488 34.2331 20.4467 35.1505 19.645C35.5536 19.2733 36.0636 18.9742 36.6426 18.7697C37.2217 18.5651 37.855 18.4605 38.4956 18.4636C39.1362 18.4666 39.7676 18.5772 40.3432 18.7872C40.9187 18.9972 41.4235 19.3012 41.8203 19.6767C44.0332 21.7138 43.4942 24.9128 40.6918 26.3903C40.2197 26.6369 39.6856 26.8093 39.1217 26.8971C38.5577 26.985 37.9758 26.9864 37.4111 26.9014C36.8464 26.8163 36.3107 26.6466 35.8365 26.4024C35.3623 26.1582 34.9594 25.8447 34.6524 25.4809ZM42.0473 33.5843C41.5034 34.2316 41.2927 34.2682 40.4223 33.8695C39.0341 33.2234 39.0259 33.2198 39.8768 32.2055C43.4779 27.9154 47.0828 23.6266 50.6915 19.339C51.1488 18.7904 51.4052 18.7526 52.1254 19.0806C52.4798 19.2342 52.8211 19.3914 53.1428 19.5414C53.2782 19.669 53.3478 19.8285 53.3391 19.9911C53.3304 20.1537 53.244 20.3086 53.0955 20.4277C51.8004 21.9686 50.5037 23.5116 49.2053 25.0566C46.816 27.8984 44.43 30.7409 42.0473 33.5843ZM56.5806 33.9512C55.7174 34.4148 54.6484 34.6126 53.5951 34.5037C52.5419 34.3947 51.5852 33.9874 50.9234 33.3661C48.5341 31.3314 49.1825 27.8618 52.194 26.483C53.0139 26.1018 53.9868 25.9471 54.9436 26.0458C55.9004 26.1444 56.7807 26.4902 57.4315 27.023C59.9253 29.0138 59.5154 32.4054 56.5806 33.9512Z" fill="#3D87E1"/>
</svg>
