<svg width="54" height="50" viewBox="0 0 54 50" fill="none" xmlns="http://www.w3.org/2000/svg">
<g clip-path="url(#clip0_87_45)">
<path d="M43.48 41.6016C42.9031 41.6016 42.4348 42.0391 42.4348 42.5781C42.4348 43.1172 42.9031 43.5547 43.48 43.5547C44.057 43.5547 44.5252 43.1172 44.5252 42.5781C44.5252 42.0391 44.057 41.6016 43.48 41.6016Z" fill="#38D8E0"/>
<path d="M46.6156 4.63203V2.92969C46.6156 1.31426 45.209 0 43.48 0H10.0339C8.3049 0 6.89827 1.31426 6.89827 2.92969V4.63203C0.0807937 16.3961 0.000313558 16.0468 0 16.6005C0 16.6009 0 16.6012 0 16.6016V18.5547C0 20.2474 1.04749 21.8216 2.7175 22.7168V49.0234C2.7175 49.5627 3.18554 50 3.7627 50H49.7512C50.3283 50 50.7964 49.5627 50.7964 49.0234V22.7168C52.4496 21.8224 53.5139 20.2296 53.5139 18.5547V16.6016C53.5139 16.6012 53.5139 16.6009 53.5139 16.6005C53.5136 16.0408 53.3666 16.2813 46.6156 4.63203ZM50.7011 15.625H44.2334L40.7495 5.85938H44.9525L50.7011 15.625ZM36.1637 17.5781H42.4348V18.5547C42.4348 20.1701 41.0282 21.4844 39.2993 21.4844C37.5703 21.4844 36.1637 20.1701 36.1637 18.5547V17.5781ZM36.0039 15.625L34.262 5.85938H38.5459L42.0298 15.625H36.0039ZM8.98866 2.92969C8.98866 2.39121 9.45753 1.95312 10.0339 1.95312H43.48C44.0564 1.95312 44.5252 2.39121 44.5252 2.92969V3.90625C43.53 3.90625 9.99163 3.90625 8.98866 3.90625V2.92969ZM34.0733 17.5781V18.5547C34.0733 20.1701 32.6667 21.4844 30.9377 21.4844C29.2088 21.4844 27.8021 20.1701 27.8021 18.5547V17.5781H34.0733ZM27.8021 15.625V5.85938H32.1427L33.8847 15.625H27.8021ZM19.6292 15.625L21.3713 5.85938H25.7118V15.625H19.6292ZM25.7118 17.5781V18.5547C25.7118 20.1701 24.3051 21.4844 22.5762 21.4844C20.8472 21.4844 19.4406 20.1701 19.4406 18.5547V17.5781H25.7118ZM11.484 15.625L14.9679 5.85938H19.2519L17.5099 15.625H11.484ZM17.3502 17.5781V18.5547C17.3502 20.1701 15.9436 21.4844 14.2146 21.4844C12.4857 21.4844 11.079 20.1701 11.079 18.5547V17.5781H17.3502ZM8.56139 5.85938H12.7644L9.28048 15.625H2.81282L8.56139 5.85938ZM2.09039 18.5547V17.5781H8.98866V18.5547C8.98866 20.088 7.34468 21.4844 5.53952 21.4844C5.08445 21.4844 4.61285 21.3921 4.17387 21.2166C2.92769 20.7214 2.09039 19.6516 2.09039 18.5547ZM21.531 48.0469H11.079V39.6484H21.531V48.0469ZM21.531 37.6953H11.079V29.2969H21.531V37.6953ZM48.706 48.0469H23.6214V28.3203C23.6214 27.7811 23.1533 27.3438 22.5762 27.3438H10.0339C9.4567 27.3438 8.98866 27.7811 8.98866 28.3203V48.0469H4.80789V23.3897C5.05016 23.4205 5.29422 23.4375 5.53952 23.4375C6.9151 23.4375 8.30563 22.9283 9.35427 22.0404C9.5862 21.8441 9.79503 21.6342 9.98243 21.4142C10.9329 22.6389 12.4754 23.4375 14.2146 23.4375C15.9224 23.4375 17.4411 22.6682 18.3954 21.481C19.3497 22.6682 20.8684 23.4375 22.5762 23.4375C24.2839 23.4375 25.8027 22.6682 26.7569 21.481C27.7112 22.6682 29.23 23.4375 30.9377 23.4375C32.6455 23.4375 34.1642 22.6682 35.1185 21.481C36.0728 22.6682 37.5915 23.4375 39.2993 23.4375C41.0385 23.4375 42.581 22.6389 43.5315 21.4142C43.7189 21.6342 43.9277 21.844 44.1596 22.0404C45.2083 22.9283 46.5988 23.4375 47.9744 23.4375C48.2191 23.4375 48.4632 23.4211 48.706 23.3901V48.0469ZM51.4235 18.5547C51.4235 19.6824 50.555 20.7646 49.2627 21.2476C48.84 21.4048 48.4067 21.4844 47.9744 21.4844C46.1692 21.4844 44.5252 20.088 44.5252 18.5547V17.5781H51.4235V18.5547Z" fill="#38D8E0"/>
<path d="M45.5704 37.6953H44.5252V28.3203C44.5252 27.7811 44.0572 27.3438 43.48 27.3438H30.9377C30.3606 27.3438 29.8925 27.7811 29.8925 28.3203V37.6953H28.8473C28.2702 37.6953 27.8021 38.1326 27.8021 38.6719C27.8021 39.2111 28.2702 39.6484 28.8473 39.6484H45.5704C46.1476 39.6484 46.6156 39.2111 46.6156 38.6719C46.6156 38.1326 46.1476 37.6953 45.5704 37.6953ZM42.4348 37.6953H31.9829V29.2969H42.4348V37.6953Z" fill="#38D8E0"/>
<path d="M39.2993 41.6016H30.9377C30.3606 41.6016 29.8925 42.0389 29.8925 42.5781C29.8925 43.1174 30.3606 43.5547 30.9377 43.5547H39.2993C39.8764 43.5547 40.3444 43.1174 40.3444 42.5781C40.3444 42.0389 39.8764 41.6016 39.2993 41.6016Z" fill="#38D8E0"/>
</g>
<defs>
<clipPath id="clip0_87_45">
<rect width="53.5139" height="50" fill="white"/>
</clipPath>
</defs>
</svg>
